<svg width="460" height="461" viewBox="0 0 460 461" fill="none" xmlns="http://www.w3.org/2000/svg">
<g clip-path="url(#clip0_15374_15579)">
<path d="M416.8 206V213.5C411.25 225.66 401.8 222 392.03 222.25L400.41 197.99C407.51 197.98 413.5 198.56 416.8 206Z" fill="#EAA951"/>
<path d="M96.2497 275.84L85.2997 304.21C84.7097 305.74 84.5897 307.23 84.5697 308.52C81.7497 311.1 79.8797 314.9 76.0397 316.8C71.9597 318.83 66.0097 319.73 64.2197 315.33L73.7897 289.03C74.3197 287.57 74.7297 286.27 74.5797 285C83.0797 276.43 85.1397 270.18 96.2497 275.83V275.84Z" fill="#EEBE62"/>
<path d="M71.78 198.01C71.81 198.91 71.68 199.9 71.28 201.01L63.58 222.25C59.77 222.42 41.2 223.48 40.96 220.87L49.21 198.03C57.17 197.54 64.5 197.6 71.77 198.01H71.78Z" fill="#EEBE62"/>
<path d="M88.9496 116.2L79.4296 140C74.8496 134.76 68.6296 131.33 65.1396 125.75C65.7496 125.35 66.1796 124.63 66.5196 123.68L74.0396 102.7C75.2396 103.35 76.1896 102.92 77.1696 103.8C81.5396 107.77 85.1296 112.18 88.9396 116.19L88.9496 116.2Z" fill="#EEBE62"/>
<path d="M79.4297 140.01L88.9497 116.21C92.6197 120.07 97.1197 122.9 100.25 127.15C104.75 133.26 102.1 141.3 96.0197 144.77C89.1597 148.69 83.8597 145.08 79.4297 140.01Z" fill="#EAA951"/>
<path d="M63.5801 222.25L71.2801 201.01C71.6801 199.9 71.8101 198.91 71.7801 198.01C78.9601 196.52 84.8601 201.62 85.8801 207.95C86.9701 214.73 82.9001 220.75 75.9101 222.23C71.7201 223.11 67.5401 222.08 63.5901 222.25H63.5801Z" fill="#EAA951"/>
<path d="M84.5703 308.52C84.5903 307.23 84.7103 305.74 85.3003 304.21L96.2503 275.84C102.7 279.12 104.82 287.78 99.8303 293.5C95.0703 298.95 89.7203 303.82 84.5703 308.52Z" fill="#EAA951"/>
<path d="M74.04 102.71L66.52 123.69C66.18 124.64 65.75 125.36 65.14 125.76C62.09 123.71 58.95 120.76 58.33 116.88C57.52 111.83 58.78 107.79 62.31 104.72C65.49 101.96 70.18 100.6 74.05 102.72L74.04 102.71Z" fill="#F1C96B"/>
<path d="M49.21 198.04L40.96 220.88C37.27 220.12 34.9 217.18 33.99 213.89C32.59 208.82 33.72 204.4 37.21 201.04C40.38 197.99 44.83 197.09 49.21 198.04Z" fill="#F1C96B"/>
<path d="M64.2198 315.34C58.0898 315.86 56.0898 303.65 60.3898 298.96C65.0298 293.9 69.5798 289.15 74.5798 285.02C74.7298 286.29 74.3198 287.59 73.7898 289.05L64.2198 315.35V315.34Z" fill="#F1C96B"/>
<path d="M377.85 287.17C374.1 294.33 371.96 303.76 368.16 310.83C362.94 305.7 357.25 301.44 353.17 295.83C356.68 288.87 359.2 281.32 361.57 273.88C363.33 274.17 365.05 274.34 366.33 275.3C370.93 278.77 374.04 283.46 377.84 287.17H377.85Z" fill="#EEBE62"/>
<path d="M400.41 197.99L392.03 222.25L376.4 222.64C374.24 222.69 373.18 221.14 371.82 220.87L380.07 198.03L400.41 197.99Z" fill="#EEBE62"/>
<path d="M368.16 310.83C371.96 303.76 374.1 294.33 377.85 287.17C386.21 295.31 395.36 299.88 391.34 311.16C390.11 314.61 385.81 317.55 381.5 318.34C374.95 319.54 371.84 314.46 368.15 310.84L368.16 310.83Z" fill="#EAA951"/>
<path d="M380.07 198.03L371.82 220.87C365.23 219.57 363.18 211.37 365.01 205.75C367.52 198.06 373.74 198.04 380.07 198.03Z" fill="#F1C96B"/>
<path d="M386.62 104.1C382.12 113.25 379.43 123.22 375.3 132.94C374.84 134.03 375.09 135.17 375.02 135.99C373.84 138.32 371.52 139.64 370.31 141.18C365.5 147.34 358.5 147.54 353.19 143.59L362.96 118.16C363.53 116.68 363.61 115.26 363.48 114.01C371.94 105.82 375.12 97.49 386.62 104.09V104.1Z" fill="#EEBE62"/>
<path d="M375.02 135.99C375.09 135.17 374.84 134.03 375.3 132.94C379.42 123.22 382.12 113.24 386.62 104.1C392.77 107.64 394.47 116.29 389.53 121.75C384.91 126.85 380.06 131.71 375.02 136V135.99Z" fill="#EAA951"/>
<path d="M353.19 143.59C348.08 139.79 345.45 133.42 350.04 127.44C353.74 122.62 358.9 118.11 363.47 114.01C363.6 115.25 363.52 116.68 362.95 118.16L353.18 143.59H353.19Z" fill="#F1C96B"/>
<path d="M332.533 48.4776C329.214 58.1189 327.793 68.3472 324.912 78.5076C324.592 79.6466 324.983 80.7464 325.016 81.5687C324.137 84.0281 322 85.6281 320.993 87.3074C316.991 94.021 310.072 95.0955 304.309 91.8412L310.819 65.3883C311.2 63.8486 311.101 62.4298 310.816 61.2059C318.184 52.0214 320.297 43.3589 332.532 48.4677L332.533 48.4776Z" fill="#EEBE62"/>
<path d="M325.016 81.5687C324.983 80.7464 324.592 79.6467 324.912 78.5077C327.783 68.3484 329.213 58.109 332.534 48.4776C339.078 51.2201 341.848 59.5893 337.63 65.6246C333.685 71.2628 329.481 76.6916 325.018 81.5786L325.016 81.5687Z" fill="#EAA951"/>
<path d="M304.309 91.8412C298.764 88.7106 295.357 82.7199 299.162 76.2124C302.23 70.9672 306.785 65.8469 310.806 61.2071C311.09 62.4211 311.19 63.8499 310.809 65.3896L304.299 91.8424L304.309 91.8412Z" fill="#F1C96B"/>
<path d="M216.438 17.7895C219.726 27.4415 224.873 36.3935 228.826 46.1869C229.272 47.2829 230.255 47.9123 230.785 48.5416C231.598 51.0235 230.891 53.5974 231.124 55.5419C232.079 63.2989 227.271 68.3901 220.723 69.3517L209.649 44.4616C209.006 43.012 208.058 41.9514 207.083 41.1594C207.274 29.3861 203.632 21.2473 216.431 17.7825L216.438 17.7895Z" fill="#EEBE62"/>
<path d="M230.785 48.5418C230.254 47.9124 229.271 47.2831 228.826 46.1871C224.866 36.4007 219.718 27.4346 216.437 17.7897C223.289 15.9441 230.608 20.8585 230.976 28.2124C231.315 35.0855 231.322 41.9515 230.792 48.5488L230.785 48.5418Z" fill="#EAA951"/>
<path d="M220.723 69.352C214.422 70.2783 208.058 67.6337 207.075 60.1596C206.284 54.135 206.743 47.2973 207.075 41.1667C208.044 41.9516 208.999 43.0193 209.642 44.4689L220.716 69.3591L220.723 69.352Z" fill="#F1C96B"/>
<path d="M115.039 49.0697C123.467 54.8091 132.961 58.8715 142.006 64.3246C143.02 64.933 144.184 64.8454 144.986 65.0298C147.127 66.525 148.109 69.0073 149.464 70.4214C154.888 76.0482 154.104 83.007 149.448 87.7102L125.64 74.4685C124.255 73.6965 122.86 73.418 121.604 73.3713C114.682 63.8458 106.881 59.5284 115.029 49.0683L115.039 49.0697Z" fill="#EEBE62"/>
<path d="M144.987 65.0301C144.184 64.8457 143.021 64.9333 142.006 64.3249C132.96 58.8817 123.458 54.808 115.04 49.07C119.408 43.4776 128.211 43.0082 132.923 48.6655C137.325 53.9554 141.456 59.4394 144.996 65.0315L144.987 65.0301Z" fill="#EAA951"/>
<path d="M149.448 87.7105C144.968 92.2367 138.292 93.9468 133.016 88.5631C128.762 84.2234 125.021 78.4816 121.603 73.3815C122.849 73.4268 124.254 73.7067 125.639 74.4787L149.446 87.7204L149.448 87.7105Z" fill="#F1C96B"/>
<path d="M361.57 273.88C359.2 281.32 356.68 288.87 353.17 295.83C347.92 292.63 346.67 286.24 348.93 280.98C350.97 276.23 356.28 273.01 361.57 273.88Z" fill="#F1C96B"/>
<path d="M237.9 77C238.12 77.66 238.87 77.92 239.52 77.95C239.48 78.77 239.22 79.63 238.38 80.48L198.01 120.96C196.52 122.45 195.73 123.96 195.97 125.75C169.79 135.23 149.44 155.54 139.94 181.83C139.57 181.01 137.55 181.12 136.67 182.01L97.1202 221.61C95.9402 222.79 95.1302 223.91 93.6902 224.05L92.8002 218.69L92.6202 201.45C92.6102 200.18 93.2302 199.2 93.6802 198.52C94.8602 198.67 95.2702 197.8 96.3402 196.73L212.54 80.28C214.14 79.36 214.47 78.21 213.94 77H237.89H237.9Z" fill="#F4D474"/>
<path d="M213.94 77C214.47 78.21 214.14 79.36 212.54 80.28L96.3301 196.73C95.2601 197.81 94.8501 198.67 93.6701 198.52C92.6501 192.25 96.4201 177.69 98.3101 171.3C99.5001 171.39 100.44 170.94 101.66 169.86L186.51 84.86C187.42 83.95 187.76 83.34 187.78 82.46C195.9 80.32 204.02 78.06 212.45 77H213.95H213.94Z" fill="#F5DA78"/>
<path d="M246.92 304.98C252.32 311.34 258.47 317.16 264.79 323.12C268.91 322.78 281.81 323.74 285.09 324.47C287.61 325.03 290.31 323.86 292.34 325.26C292.3 325.48 292.35 325.72 292.29 325.93C291.76 325.65 291.84 326.44 291.79 326.75C289.94 330.08 288.15 333.78 288.08 337.99L287.9 349.04C285.57 348.5 283.46 347.78 280.47 347.78L168.38 347.87C166.21 347.87 163.87 348.3 162.29 348.75V337.25C162.29 336.37 162.03 333.93 163.18 333.89L185.91 333.14C192.01 332.94 197.98 332.84 204.19 332.71C206.64 332.66 209.07 333.03 211 331.35C208.56 327.96 205.92 325.55 204.7 321.37L217.57 313.29C219.42 312.13 221.79 312.67 223.55 312C223.42 314.04 221.5 315.55 220.87 317.93C222.16 320.17 224.56 315.96 226.19 317.03C227.82 318.1 224.48 321.19 225.43 323.58C227.53 323.41 229.21 322.47 231.28 321.47C231.89 326.12 239.79 325.38 243.82 325.24C248.17 318.4 247.34 310.51 244.35 303.49C245.08 304.06 246.3 304.26 246.92 304.99V304.98Z" fill="#BB4030"/>
<path d="M139.93 181.83C133.21 200.4 134.42 221.76 140.7 239.9C141.17 241.25 141.09 242.82 141.8 244.14C140.34 244.5 139.1 245.5 137.82 246.76L109.97 274.24L104.34 264.59C97.2802 252.47 95.9302 237.75 93.6602 224.06C95.1002 223.92 95.9102 222.79 97.0902 221.62L136.64 182.02C137.53 181.13 139.54 181.02 139.91 181.84L139.93 181.83Z" fill="#F1C96B"/>
<path d="M141.81 244.14C143.99 248.16 145.1 252.9 148.35 256.13C151.2 262.87 156.95 268.17 161.7 273.56L167.44 280.06C163.19 283.23 160.25 288.87 154.9 290.83C146.59 293.87 131.99 293.14 124.31 295.25C118.49 288.99 114.21 281.48 109.99 274.23L137.84 246.75C139.12 245.49 140.36 244.49 141.82 244.13L141.81 244.14Z" fill="#EEBE62"/>
<path d="M187.78 82.46C187.76 83.34 187.43 83.95 186.51 84.86L101.65 169.86C100.43 170.94 99.4898 171.39 98.2998 171.3C110.77 129.1 145.28 93.66 187.78 82.46Z" fill="#F6DE7C"/>
<path d="M239.4 298.31C236.34 300.47 226.14 311.01 223.55 311.99C221.79 312.66 219.42 312.12 217.57 313.28L204.7 321.36C205.92 325.54 208.57 327.95 211 331.34C209.07 333.03 206.64 332.65 204.19 332.7C197.97 332.84 192.01 332.93 185.91 333.13L163.18 333.88C162.03 333.92 162.29 336.36 162.29 337.24C160.9 331.36 158.18 326.06 154.11 321.49C157.47 319.59 161.28 319.98 165.31 319.81L181.72 319.11L190.76 318.4C194.95 318.07 199.02 317.17 203.09 317.73C204.22 315.01 202.83 312.41 203.52 310.28C204.45 307.42 205.53 304.46 207.44 302.17C213.08 305.55 226.35 297.45 228.26 293.03C232.32 293.66 236.92 294.94 239.39 298.3L239.4 298.31Z" fill="#D76938"/>
<path d="M179.58 287.72C186.64 292.83 195.04 295.36 203.33 298.26C202.24 299.76 200.25 299.6 198.23 299.79L177.8 301.78C172.32 302.31 167.11 303.01 161.53 303.38L150.36 304.12C145.11 304.47 140.06 304.94 135.38 306.38C145.6 319.38 117.51 287.93 124.32 295.26C132 293.15 146.6 293.88 154.91 290.84C160.27 288.88 163.2 283.24 167.45 280.07C170.58 283.61 175.84 285.02 179.59 287.73L179.58 287.72Z" fill="#EAA951"/>
<path d="M278.021 432.6C267.121 447.68 251.691 457.6 233.411 461H216.941C198.791 457.5 183.071 447.76 172.341 432.6C172.961 432.39 173.821 431.81 175.061 431.82L278.021 432.59V432.6Z" fill="#7F66B9"/>
<path d="M287.901 349.04C290.721 349.69 292.801 351.48 295.011 353.48C300.411 358.36 302.431 364.88 301.251 371.7H149.081C147.331 360.94 153.131 353.32 162.291 348.76C163.871 348.31 166.201 347.89 168.381 347.88L280.471 347.79C283.451 347.79 285.571 348.51 287.901 349.05V349.04Z" fill="#EAF2FE"/>
<path d="M301.261 371.69C300.671 375.09 300.201 379.16 297.031 381.33C296.751 380.96 296.361 380.84 295.411 380.67H154.951C154.011 380.81 153.641 380.98 153.341 381.33C150.171 379.18 149.641 375.1 149.091 371.69H301.271H301.261Z" fill="#C6DBF5"/>
<path d="M297.031 381.33C297.371 384.73 287.851 389.06 285.061 389.72H165.291C162.531 389.07 152.931 384.72 153.341 381.33C153.641 380.98 154.011 380.81 154.951 380.67H295.411C296.361 380.84 296.751 380.97 297.031 381.33Z" fill="#A2BFE7"/>
<path d="M285.051 389.72C296.041 393.54 302.791 401.63 301.291 413.1H149.051C147.131 401.17 155.701 392.81 165.281 389.72H285.051Z" fill="#EAF2FE"/>
<path d="M299.89 418.32C297.29 428.56 286.65 432.66 278.02 432.6L175.06 431.83C173.82 431.83 172.96 432.4 172.34 432.61L164.75 431.56C157.51 430.56 152.02 424.72 150.48 418.26L299.89 418.32Z" fill="#A2BFE7"/>
<path d="M301.301 413.1C300.981 415.54 300.311 416.67 299.891 418.32L150.481 418.26C150.001 416.25 149.351 414.88 149.061 413.09H301.301V413.1Z" fill="#C6DBF5"/>
<path d="M209.31 299.07C208.72 300.01 208.2 301.29 207.45 302.18C205.54 304.47 204.45 307.43 203.53 310.29C200.22 311.18 196.73 310.75 193.02 311.14L184.77 312.02L175 312.72C171.91 312.94 151.72 314.1 150.34 314C148.74 313.88 146.79 314.74 146.56 316.04C142.25 313.36 138.47 310.32 135.37 306.38C140.05 304.94 145.1 304.47 150.35 304.12L161.52 303.38C167.1 303.01 172.31 302.32 177.79 301.78L198.22 299.79C200.24 299.59 202.23 299.75 203.32 298.26C205.12 298.89 207.45 298.55 209.31 299.07Z" fill="#E38A48"/>
<path d="M203.53 310.29C202.84 312.42 204.23 315.02 203.1 317.74C199.03 317.18 194.96 318.08 190.77 318.41L181.73 319.12L165.32 319.82C161.29 319.99 157.48 319.6 154.12 321.5C151.27 320.64 149.02 317.57 146.57 316.04C146.8 314.73 148.75 313.88 150.35 314C151.73 314.1 171.92 312.94 175.01 312.72L184.78 312.02L193.03 311.14C196.74 310.75 200.24 311.18 203.54 310.29H203.53Z" fill="#E2823C"/>
<path d="M325.53 226.7C332.58 234.49 340.17 241.8 347.86 249.44C348.9 250.47 349.95 251.26 350.17 252.49C344.35 271.05 334.06 287.66 320.17 302.06C320.11 302.13 308.6 313.58 309.02 311.54C309.02 310.39 307.23 309.44 305.91 309.62C302.46 310.09 299.77 309.07 296.58 308.46C287.78 306.79 279.08 305.95 270.11 305.07C264.58 304.52 259.22 305.67 253.75 304.84C251.35 304.47 248.7 303.28 246.92 304.98C246.3 304.25 245.09 304.05 244.35 303.48C243.67 301.88 241.54 300.78 241.03 298.99C281.79 292.34 311.45 257.54 314.95 216.54C317.98 220.38 322.3 223.15 325.52 226.71L325.53 226.7Z" fill="#E2823C"/>
<path d="M326.68 124.77C343.29 145.13 351.64 171.5 356.69 197.09L326.85 226.15C326.47 226.52 324.92 225.97 325.53 226.7C322.31 223.14 317.98 220.37 314.96 216.53C315 216.01 314.76 215.47 314.77 214.95C315.13 196.86 311.22 178.14 300.7 163.39C299.11 161.16 298.25 157.86 296.41 155.75L297.51 153.27L326.68 124.77Z" fill="#EAA951"/>
<path d="M289.63 93.79C289.66 94.79 289.02 95.6799 287.88 96.3099L260.58 123.68C259.47 124.79 258.75 125.92 258.8 127.22C238.42 120.39 216.54 118.3 195.97 125.75C195.74 123.96 196.53 122.45 198.01 120.96L238.37 80.48C239.22 79.63 239.47 78.77 239.51 77.95C257.27 78.9 274.17 85.2 289.62 93.79H289.63Z" fill="#F1C96B"/>
<path d="M326.68 124.77L297.51 153.27L296.41 155.75C292.71 151.52 288.56 147.72 284.5 143.95C277.77 137.7 268.82 134.01 261.35 128.95L258.8 127.23C258.74 125.93 259.47 124.8 260.58 123.69L287.88 96.32C289.02 95.69 289.67 94.81 289.63 93.8C301.05 100.15 312.33 107.18 320.87 117.65L326.68 124.77Z" fill="#EEBE62"/>
<path d="M356.69 197.09L357.57 201.55C358.71 207.33 357.49 213.39 357.35 219.11C357.06 231.16 353.55 241.74 350.17 252.5C349.94 251.26 348.89 250.48 347.86 249.45C340.17 241.81 332.58 234.5 325.53 226.71C324.92 225.98 326.47 226.53 326.85 226.16L356.69 197.1V197.09Z" fill="#E38A48"/>
<path d="M309.03 311.55C308.06 313.84 305.6 315.13 303.34 316.54C299.14 319.16 295.95 322.39 292.34 325.26C290.3 323.86 287.61 325.03 285.09 324.47C281.81 323.74 268.91 322.79 264.79 323.12C258.48 317.16 252.32 311.34 246.92 304.98C248.7 303.28 251.34 304.48 253.75 304.84C259.22 305.67 264.59 304.53 270.11 305.07C279.08 305.96 287.78 306.79 296.58 308.46C299.77 309.07 302.46 310.09 305.91 309.62C307.23 309.44 309.02 310.38 309.02 311.54L309.03 311.55Z" fill="#D76938"/>
<path d="M291.79 326.75C291.85 326.43 291.76 325.65 292.29 325.93C292.21 326.25 291.94 326.48 291.79 326.75Z" fill="#D76938"/>
<path d="M258.8 127.22L261.35 128.94C261.14 130.17 260.39 131.2 259.46 132.42L231.45 160.51C230.06 161.37 229.62 162.68 229.72 163.98L190.73 164.05C187.57 164.05 185.09 165.32 183.74 168.27C180.87 174.56 181.93 184.88 188.51 187.2C189.4 188.05 189.81 189.74 190.76 190.49L143.41 238.77C142.56 239.64 141.42 239.75 140.7 239.91C134.42 221.77 133.21 200.41 139.93 181.84C149.44 155.55 169.79 135.24 195.96 125.76C216.53 118.31 238.41 120.4 258.79 127.23L258.8 127.22Z" fill="#F6DE7C"/>
<path d="M241.04 298.98C241.55 300.77 243.67 301.87 244.36 303.47C247.35 310.5 248.18 318.38 243.83 325.22C239.8 325.36 231.9 326.1 231.29 321.45C229.22 322.45 227.54 323.39 225.44 323.56C224.48 321.17 227.81 318.06 226.2 317.01C224.59 315.96 222.17 320.16 220.88 317.91C221.51 315.53 223.43 314.01 223.56 311.98C226.15 311 236.35 300.46 239.41 298.3L241.05 298.97L241.04 298.98Z" fill="#CF4959"/>
<path d="M202.58 202.22C202.98 203.39 202.24 204.37 200.82 204.98L151.94 253.98C151.2 255.74 149.82 256.51 148.35 256.14C145.1 252.91 143.99 248.16 141.81 244.15C141.1 242.83 141.17 241.26 140.71 239.91C141.43 239.75 142.57 239.64 143.42 238.77L190.77 190.49C195.12 193.91 198.76 198.21 202.59 202.22H202.58Z" fill="#F5DA78"/>
<path d="M212.62 221.8C212.68 222.04 212.29 222.35 212.3 222.6C210.4 222.54 210.82 225.21 209.6 226.43L165.98 270.34C164.53 271.8 163.38 273.09 161.69 273.56C156.94 268.18 151.18 262.88 148.34 256.13C149.81 256.5 151.19 255.73 151.93 253.97L200.81 204.97C202.23 204.37 202.97 203.39 202.57 202.21C205.62 205.41 209.44 208.35 212.1 212.22C213.29 215.16 211.86 218.95 212.62 221.8Z" fill="#F4D474"/>
<path d="M212.3 222.6C212.78 233.1 211.98 243.63 212.18 254.11C210.69 254.28 210.7 256.18 209.65 257.25L179.57 287.73C175.83 285.02 170.56 283.61 167.43 280.07L161.69 273.57C163.38 273.11 164.53 271.81 165.98 270.35L209.6 226.44C210.82 225.21 210.4 222.55 212.3 222.61V222.6Z" fill="#F1C96B"/>
<path d="M314.77 214.95C314.76 215.47 315 216.01 314.96 216.53C311.46 257.54 281.8 292.33 241.04 298.98L239.4 298.31C236.93 294.94 232.34 293.67 228.27 293.04L226.43 292.75C225.99 289.86 218.46 285.81 219.18 283.06C223.95 283.99 228.94 284.29 233.68 281.87C235.49 280.94 237.86 278.92 237.88 276.5L238.14 248.61C239.95 248.21 239.87 245.82 241.25 244.45L291.82 193.93C289.32 191.15 316.25 218.27 314.76 214.95H314.77Z" fill="#E38A48"/>
<path d="M226.43 292.76L228.27 293.05C226.36 297.47 213.09 305.57 207.45 302.19C208.2 301.3 208.72 300.02 209.31 299.08C214.24 295.05 220.06 291.77 226.43 292.76Z" fill="#E2823C"/>
<path d="M212.19 254.11L212.64 277.15C212.69 279.9 215.84 281.58 217.66 282.46C217.39 282.96 218.1 283 218.44 283.08C218.68 283.14 218.95 283.02 219.19 283.07C218.48 285.82 226 289.87 226.44 292.76C220.07 291.77 214.25 295.05 209.32 299.08C207.46 298.55 205.13 298.89 203.33 298.27C195.04 295.37 186.64 292.84 179.58 287.73L209.66 257.25C210.72 256.18 210.71 254.28 212.19 254.11Z" fill="#EEBE62"/>
<path d="M314.77 214.95C316.26 218.27 289.33 191.14 291.83 193.93L281.54 182.46C282.04 182.45 282.83 182.4 283.41 181.82L298.01 167.24C299.25 166 300.3 164.87 300.7 163.38C311.22 178.13 315.13 196.86 314.77 214.94V214.95Z" fill="#EEBE62"/>
<path d="M296.411 155.75C298.251 157.86 299.121 161.16 300.701 163.39C300.301 164.87 299.251 166.01 298.011 167.25L283.411 181.83C282.831 182.4 282.051 182.45 281.541 182.47L267.891 169.87L266.091 167.58C265.701 167.08 265.821 165.87 265.141 165.48L282.971 147.7C284.051 146.62 284.391 145.15 284.491 143.96C288.561 147.73 292.711 151.53 296.401 155.76L296.411 155.75Z" fill="#F1C96B"/>
<path d="M284.49 143.95C284.4 145.14 284.05 146.61 282.97 147.69L265.14 165.47C263.71 165.03 262.26 164.09 260.37 164.09L230.54 164.2L229.71 163.98C229.61 162.68 230.05 161.37 231.44 160.51L259.45 132.42C260.38 131.2 261.13 130.17 261.34 128.94C268.81 134 277.75 137.69 284.49 143.94V143.95Z" fill="#F4D474"/>
<path d="M281.54 182.46L291.83 193.93L241.26 244.45C239.88 245.82 239.96 248.22 238.15 248.61L237.58 199.3C237.54 195.44 238.46 191.65 237.78 187.04C241.89 187.47 245.02 186.66 248.33 186.63C252.83 186.59 257.76 187.85 262.61 186.45C266.25 185.39 268.05 181.01 268 177.57L267.89 169.86L281.54 182.46Z" fill="#DE8048"/>
<path d="M265.14 165.47C265.81 165.86 265.69 167.07 266.09 167.57C265.15 167.3 264.58 168.22 263.82 168.99L250.08 182.92C248.97 184.04 248.3 185.27 248.34 186.63C245.03 186.66 241.9 187.47 237.79 187.04C238.47 191.65 237.54 195.44 237.59 199.3C236.05 199.47 234.83 200.46 233.59 201.71L214.53 220.86C213.91 221.48 213.19 221.66 212.63 221.8C211.87 218.95 213.3 215.16 212.11 212.22C209.46 208.35 205.63 205.41 202.58 202.21C198.75 198.2 195.11 193.9 190.76 190.48C189.81 189.73 189.4 188.05 188.51 187.19L209.53 186.69L228.33 167.93C229.52 166.74 230.69 165.78 230.54 164.2L260.37 164.09C262.26 164.09 263.71 165.03 265.14 165.47Z" fill="#D76938"/>
<path d="M229.72 163.99L230.55 164.21C230.7 165.79 229.54 166.75 228.34 167.94L209.54 186.7L188.52 187.2C181.93 184.88 180.87 174.56 183.75 168.27C185.1 165.32 187.58 164.06 190.74 164.05L229.73 163.98L229.72 163.99Z" fill="#E2823C"/>
<path d="M237.59 199.3L238.16 248.61L237.9 276.5C237.88 278.93 235.51 280.95 233.7 281.87C228.96 284.29 223.97 283.99 219.2 283.06C218.96 283.01 218.69 283.13 218.45 283.07C218.2 282.86 217.97 282.59 217.67 282.45C215.85 281.57 212.7 279.89 212.65 277.14L212.2 254.1C212 243.62 212.8 233.09 212.32 222.59C212.31 222.34 212.7 222.03 212.64 221.79C213.2 221.66 213.92 221.47 214.54 220.85L233.6 201.7C234.85 200.45 236.07 199.46 237.6 199.29L237.59 199.3Z" fill="#CF4959"/>
<path d="M218.43 283.08C218.09 283 217.39 282.95 217.65 282.46C217.95 282.6 218.18 282.87 218.43 283.08Z" fill="#E38A48"/>
<path d="M266.09 167.57L267.89 169.86L268 177.57C268.05 181.01 266.26 185.39 262.61 186.45C257.76 187.86 252.83 186.59 248.33 186.63C248.29 185.27 248.96 184.04 250.07 182.92L263.81 168.99C264.57 168.22 265.14 167.3 266.08 167.57H266.09Z" fill="#CF4959"/>
</g>
<defs>
<clipPath id="clip0_15374_15579">
<rect width="460" height="461" fill="white"/>
</clipPath>
</defs>
</svg>
